<?xml version="1.0" encoding="UTF-8"?>
<!-- Created with Inkscape (http://www.inkscape.org/) -->
<svg width="200" height="180.01" version="1.1" viewBox="0 0 52.917 47.627" xmlns="http://www.w3.org/2000/svg" xmlns:cc="http://creativecommons.org/ns#" xmlns:dc="http://purl.org/dc/elements/1.1/" xmlns:osb="http://www.openswatchbook.org/uri/2009/osb" xmlns:rdf="http://www.w3.org/1999/02/22-rdf-syntax-ns#" xmlns:xlink="http://www.w3.org/1999/xlink">
 <defs>
  <radialGradient id="radialGradient21824" cx="94.83" cy="159.29" r="28.798" gradientTransform="matrix(.14422 0 0 .14316 90.252 129.86)" gradientUnits="userSpaceOnUse">
   <stop stop-color="#fffced" offset="0"/>
   <stop stop-color="#ece408" stop-opacity=".97647" offset="1"/>
  </radialGradient>
  <linearGradient id="linearGradient22616" x1="-55.047" x2="245" y1="202.54" y2="202.54" gradientTransform="matrix(.17636 0 0 .17636 87.206 124.61)" gradientUnits="userSpaceOnUse">
   <stop stop-color="#c0bbac" offset="0"/>
  </linearGradient>
 </defs>
 <metadata>
  <rdf:RDF>
   <cc:Work rdf:about="">
    <dc:format>image/svg+xml</dc:format>
    <dc:type rdf:resource="http://purl.org/dc/dcmitype/StillImage"/>
    <dc:title/>
   </cc:Work>
  </rdf:RDF>
 </metadata>
 <g transform="translate(-77.498 -135.66)">
  <path d="m106.32 151.41-3.1377-1.7e-4m-1.587-1.8e-4 1.577 2.7223m0.78506 1.3695 1.6013-2.7339m-18.072-1.3577c4.703-1e-4 9.406-2.7e-4 14.109-2.7e-4 -2.3855-4.1319-4.7711-8.2637-7.1566-12.396-4.7709-1.7e-4 -9.5418 3.6e-4 -14.313 3.6e-4 2.3855 4.1319 4.7711 8.2637 7.1566 12.396l0.17636 1.1e-4zm23.526 16.31c-2.3516-4.0728-4.7033-8.1456-7.0548-12.219-2.3855 4.1319-4.7711 8.2637-7.1566 12.396 2.3853 4.1318 4.7712 8.2632 7.1566 12.395 2.3855-4.1319 4.7711-8.2637 7.1566-12.396l-0.0881-0.15279zm2.362-28.529c-2.3514 4.073-4.7026 8.146-7.0541 12.219h14.313c2.3856-4.1316 4.7706-8.2636 7.1561-12.395h-14.313l-0.0883 0.15269zm-11.004 13.582-15.875-1.2e-4 -8.7313-15.123 17.462 2.3e-4 8.7313 15.123m0.81024 1.3501 7.9207 13.773-8.7313 15.123-8.731-15.123 8.7313-15.123m0.76917-1.3582 7.9621-13.764h17.463l-8.7313 15.123h-17.463" fill="#c8c4b7" stroke="url(#linearGradient22616)" stroke-linejoin="round" stroke-width=".52909"/>
  <path d="m102.15 149.39c0.14476-0.1112 0.29095-0.26882 0.39594-0.37127 0.0683-0.0497 0.16103-0.10442 0.18147-0.2063-5e-3 -0.18288-0.12424-0.25346-0.22271-0.33831-0.12002-0.083-0.23495-0.17546-0.37944-0.2228-0.0969-0.1277-0.25369-0.28989-0.22271-0.51153 0.0102-0.53578 0.62888-0.95479 0.98401-1.3484 0.14434-0.58871-0.25818-1.2729-0.17351-1.8563-0.5991-0.18189-0.18964-0.39074 0.1654-0.50897 0.5318 0.27994 0.32733 1.0029 0.85182 1.2872 0.44309-0.52177 1.012-0.99199 1.2683-1.6457-0.0932-0.51087 0.72713-0.70666 0.30811-0.0911-0.32127 0.81327 0.43152-0.0681 0.79389-0.0815 0.3415-0.033 1.0396-0.62442 1.113-0.31172-0.47446 0.31228-1.0228 0.49088-1.4623 0.85498-0.5321 0.19393-1.0473 0.50289-1.2205 1.0804-0.50044 0.3843-0.47214 1.0131-0.71921 1.5417-0.71413 0.30816-0.38669 0.99198 0.25719 1.1201 0.2895 0.12427 0.6043 0.0697 0.80342 0.20672 0.0858 0.0797 0.20464 0.17158 0.31344 0.29689 0.0481 0.10866 0.27552 0.11979 0.37941 0.21444 0.11221 0.0732 0.25774 0.17456 0.41523 0.23609 0.12543 0.0954 0.0406 0.29416 0.15402 0.39095 0.0275 0.0645 0.0575 0.19092 0.14849 0.19796" fill="#784421" stroke="#67391b" stroke-width=".17636"/>
  <g fill="#008000" stroke="#007300" stroke-linejoin="round">
   <g stroke-width=".20875">
    <rect x="99.292" y="142.07" width="5.2712" height="2.2064" ry=".85"/>
    <rect x="103.05" y="141.06" width="6.705" height="2.2426" ry=".85"/>
    <rect x="97.521" y="139.65" width="7.0845" height="2.8575" ry=".85"/>
    <rect x="98.533" y="137.62" width="7.0424" height="2.3149" ry=".85"/>
    <rect x="100.43" y="135.76" width="3.7953" height="2.2064" ry=".85"/>
   </g>
   <rect x="103.42" y="136.41" width="6.3089" height="3.8379" ry=".92981" stroke-width=".2241"/>
   <rect x="100.43" y="137.97" width="10.292" height="3.9447" ry=".96564" stroke-width=".28866"/>
  </g>
  <path d="m107.92 152.4c0.01 0.11416 0.0393 0.18982 0.0662 0.31442 0.0354 0.0988 0.0246 0.13344 0.0603 0.22536-0.0233 0.0579 0.0306 0.0926 0.0239 0.15666 2e-3 0.11561 0.16732 0.15085 0.24701 0.13314 0.045-0.01 0.0849-0.0269 0.13825-0.0249 0.0439-0.02 0.0828-0.0532 0.14047-0.0617 0.059-0.05 0.11705-0.0407 0.18363-0.10356 0.0688-7e-3 0.11011-0.10266 0.16822-0.0934 0.0416-1e-3 0.11111-0.0215 0.17507-0.0227 0.0941-0.0107 0.18855-0.017 0.28111 0.0576 0.1997 0.0283 0.28192 0.26889 0.41321 0.44581 0.19177 0.32288 0.17517 0.7206 0.31815 1.0621 0.0856 0.35319 0.51626 0.30433 0.78512 0.40568 0.4121-0.0336 0.61103 0.53167 0.98312 0.38622 0.19064-0.15786 0.44771-0.2485 0.33106 0.0695-0.0119 0.12642-0.0238 0.25285-0.0356 0.37927-0.26528 0.07-0.621 0.17164-0.84947 3e-3 -0.20456-0.0999-0.87042-0.0234-0.60169 0.27782 0.0781 0.36064 0.16094 0.73955 0.35802 1.0583 0.0658 0.36887 0.30587 0.64386 0.57597 0.87928 0.15816 0.0618 0.017 0.48361-0.0817 0.34414-0.19356-0.13058-0.30643-0.51419-0.53935-0.49536-0.0527 0.27872 0.14469 0.57179-5.4e-4 0.8778-0.0486 0.31762-0.16687 0.63494-0.0635 0.96457-8.2e-4 0.13395-0.1628 0.22063-0.23312 0.33421 0.0107-0.24188-0.0122-0.55687 3e-3 -0.82609 0.0479-0.28858 0.0399-0.57923-0.01-0.86622-0.0335-0.38937 0.16214-0.79245-0.0281-1.1652-0.0808-0.28453-0.34443-0.47795-0.40409-0.77494-0.0161-0.3294-0.29013-0.49389-0.49765-0.70303-0.20057-0.20232-0.44634-0.41356-0.43605-0.72578 0.0475-0.37628-0.33265-0.50691-0.61003-0.30366-0.32425 0.0748-0.5056 0.36804-0.73686 0.57717-0.11647 0.12906-0.13793 0.23818-0.30124 0.29349-0.0764 3e-3 -0.14066 0.0401-0.27868 0.0868-0.13504 4e-3 -0.14765 9e-3 -0.24791 0.0664-0.0822 0.0985-0.1658 0.13515-0.26667 0.19159-0.10572 0.035-0.25739 0.13427-0.3774 0.22081-0.12684 0.0807-0.24202-0.10566-0.36747-0.063-0.0718 5e-3 -0.15717-0.0288-0.22504-6e-3 -0.0235-0.0249-0.0695 7e-3 -0.0687 0.0365" fill="#784421" stroke="#67391b" stroke-width=".17636"/>
  <g fill="#008000" stroke="#007300" stroke-linejoin="round">
   <g stroke-width=".20875">
    <rect transform="rotate(120)" x="75.159" y="-176.98" width="5.2712" height="2.2064" ry=".85"/>
    <rect transform="rotate(120)" x="78.912" y="-177.99" width="6.705" height="2.2426" ry=".85"/>
    <rect transform="rotate(120)" x="73.388" y="-179.4" width="7.0845" height="2.8575" ry=".85"/>
    <rect transform="rotate(120)" x="74.4" y="-181.43" width="7.0424" height="2.3149" ry=".85"/>
    <rect transform="rotate(120)" x="76.296" y="-183.29" width="3.7953" height="2.2064" ry=".85"/>
   </g>
   <rect transform="rotate(120)" x="79.285" y="-182.64" width="6.3089" height="3.8379" ry=".92981" stroke-width=".2241"/>
   <rect transform="rotate(120)" x="76.296" y="-181.08" width="10.292" height="3.9447" ry=".96564" stroke-width=".28866"/>
  </g>
  <path d="m101.8 156.31c-0.16873-0.0698-0.37824-0.11761-0.51951-0.15735-0.0937-0.0365-0.21127-0.12066-0.33368-0.0169-0.12211 0.15493-0.10831 0.32023-0.13713 0.48872-0.0188 0.12623 0.0532 0.26953-0.026 0.36745-0.0356 0.16725-0.16301 0.29316-0.31351 0.38103-0.56726 0.25972-1.2225-0.21887-1.8182-0.18382-0.41655 0.39147-0.88191 0.78983-1.3379 1.0606 0.14203 0.60979-0.24357 0.35961-0.52348 0.11125-0.02346-0.60053 0.70488-0.78492 0.68886-1.3813-0.67342-0.12285-1.3651-0.38043-2.0593-0.27551-0.39582 0.33617-0.97555-0.27639-0.23297-0.22127 0.86495-0.12841-0.27477-0.33965-0.46756-0.64676-0.19934-0.27925-1.0606-0.58816-0.82645-0.80801 0.50767 0.25476 0.93652 0.64034 1.4716 0.8389 0.434 0.36385 0.95916 0.65552 1.5459 0.51675 0.58304 0.24125 1.1135-0.0977 1.6948-0.14799 0.62394 0.46437 1.0524-0.16112 0.84142-0.78278-0.03713-0.31287-0.24178-0.55817-0.22268-0.79915 0.02609-0.11418 0.04626-0.26303 0.10039-0.41992 0.07007-0.096-0.03402-0.2985-4e-3 -0.43581 0.0073-0.13382 0.0223-0.31053-0.0032-0.47769 0.01768-0.15724 0.23493-0.18202 0.26157-0.32882 0.04214-0.0561 0.13658-0.14526 0.09718-0.22759" fill="#784421" stroke="#67391b" stroke-width=".17636"/>
  <g fill="#008000" stroke="#007300" stroke-linejoin="round">
   <g stroke-width=".20875">
    <rect transform="rotate(240)" x="-189.13" y="2.6838" width="5.2712" height="2.2064" ry=".85"/>
    <rect transform="rotate(240)" x="-185.38" y="1.671" width="6.705" height="2.2426" ry=".85"/>
    <rect transform="rotate(240)" x="-190.9" y=".26039" width="7.0845" height="2.8575" ry=".85"/>
    <rect transform="rotate(240)" x="-189.89" y="-1.7652" width="7.0424" height="2.3149" ry=".85"/>
    <rect transform="rotate(240)" x="-187.99" y="-3.629" width="3.7953" height="2.2064" ry=".85"/>
   </g>
   <rect transform="rotate(240)" x="-185" y="-2.9797" width="6.3089" height="3.8379" ry=".92981" stroke-width=".2241"/>
   <rect transform="rotate(240)" x="-187.99" y="-1.4226" width="10.292" height="3.9447" ry=".96564" stroke-width=".28866"/>
  </g>
  <ellipse cx="103.96" cy="152.77" rx="4.2793" ry="3.9626" fill="url(#radialGradient21824)" stroke="#fff5ae" stroke-linejoin="round" stroke-width=".17802"/>
  <g fill="#62c6ff" fill-opacity=".67421" stroke="#c0bbac" stroke-linejoin="round" stroke-width=".17636">
   <path d="m107.82 150.87c-0.0829-0.14726-0.22227-0.36224-0.30963-0.47773l-0.15885-0.20998 6.2793-10.872 13.687-0.0236-0.11855 0.19847c-0.0652 0.10916-1.6045 2.7753-3.4208 5.9248l-3.3022 5.7263-12.506 0.00163-0.1508-0.26776z" opacity=".976"/>
   <path d="m100.53 173.8-3.4093-5.9053 6.399-11.083h0.86742l6.3996 11.083-3.3869 5.8676c-1.8628 3.2272-3.4035 5.8846-3.4237 5.9054-0.0202 0.0208-1.5709-2.6195-3.446-5.8674z" opacity=".976"/>
   <path d="m87.394 151.04c-0.13821-0.21826-6.7079-11.616-6.7326-11.68-0.02252-0.0587 0.86186-0.0659 6.8008-0.0557l6.8266 0.0118 3.1387 5.4362c2.9307 5.0758 3.1342 5.4424 3.0695 5.5295-0.18481 0.24906-0.53322 0.78654-0.53322 0.82258 0 0.0229-2.7285 0.0407-6.2517 0.0407h-6.2517z" opacity=".976"/>
  </g>
 </g>
</svg>
